<svg xmlns="http://www.w3.org/2000/svg" width="54" height="54" fill="none"><rect width="54" height="54" fill="#222" rx="27"/><path fill="#D3E97A" fill-rule="evenodd" d="M27.028 16.167c-5.968 0-10.805 4.837-10.805 10.805 0 4.773 3.095 8.824 7.39 10.254.54.097.735-.235.735-.521 0-.257-.009-.938-.012-1.838-3.006.652-3.641-1.45-3.641-1.45-.49-1.247-1.2-1.58-1.2-1.58-.98-.67.075-.655.075-.655 1.086.076 1.655 1.113 1.655 1.113.964 1.651 2.53 1.175 3.144.898.098-.698.38-1.175.688-1.445-2.399-.272-4.921-1.199-4.921-5.34 0-1.178.421-2.144 1.11-2.898-.11-.275-.484-1.374.107-2.86 0 0 .906-.292 2.97 1.106.881-.24 1.79-.363 2.704-.364.913.001 1.823.123 2.704.364 2.065-1.399 2.97-1.106 2.97-1.106.591 1.486.22 2.585.108 2.86.693.754 1.11 1.719 1.11 2.897 0 4.153-2.525 5.065-4.932 5.333.384.333.731.992.731 2 0 1.445-.013 2.61-.013 2.965 0 .289.193.625.744.519 4.293-1.433 7.384-5.48 7.384-10.252 0-5.968-4.837-10.805-10.805-10.805Z" clip-rule="evenodd"/></svg>